# xmcd
# 
# Track frame offsets:
#     150
#     8499
#     29354
#     44253
#     57212
#     72412
#     88388
#     104518
#     121707
#     142692
#     157760
#     176940
#     190818
# 
# Disc length: 2821
# 
# Revision: 1
# Processed by: cddbd v1.5.2PL0 Copyright (c) Steve Scherf et al.
# Submitted via: BonkEnc v1.0rc1
# 
DISCID=a50b030d
DTITLE=Kenan Dogulu - Festival
DYEAR=2006
DGENRE=
TTITLE0=Ask Tanrisi
TTITLE1=Ask Kokusu
TTITLE2=Cakkidi
TTITLE3=Rahatla
TTITLE4=Ruzgar
TTITLE5=Olmaz
TTITLE6=Bas Harfi Ben
TTITLE7=Ayisigi
TTITLE8=Ara Beni Lutfen
TTITLE9=Yuzsuz Yurek
TTITLE10=Haykiris
TTITLE11=Unutarak kurtuluyorum
TTITLE12=Nereye Kadar
EXTD=YEAR: 2006
EXTT0=
EXTT1=
EXTT2=
EXTT3=
EXTT4=
EXTT5=
EXTT6=
EXTT7=
EXTT8=
EXTT9=
EXTT10=
EXTT11=
EXTT12=
PLAYORDER=
